<svg xmlns="http://www.w3.org/2000/svg" viewBox="0 0 248.5 146.32"><title>logo</title><g id="Graphic_Elements" data-name="Graphic Elements"><path d="M181.7,136.77c-.52-1.25-43.21-85.85-43.91-87A27.84,27.84,0,1,0,88.24,74.83c.52,1.25,41.38,82.22,42.08,83.38a28,28,0,0,0,1.83,3.63,27.84,27.84,0,1,0,49.55-25.07Z" transform="translate(-10.72 -32.64)" style="fill:#999"/><path d="M132.4,79.52a27.83,27.83,0,1,0-43.13-35c-.92,1-70.24,86.41-71,87.52A27.83,27.83,0,1,0,61.39,167C62.31,166.05,131.63,80.62,132.4,79.52Z" transform="translate(-10.72 -32.64)" style="fill:#f2f2f2"/><path d="M251.68,79.52a27.83,27.83,0,1,0-43.13-35c-.92,1-70.24,86.41-71,87.52A27.83,27.83,0,1,0,180.67,167C181.59,166.05,250.91,80.62,251.68,79.52Z" transform="translate(-10.72 -32.64)" style="fill:#f2f2f2"/></g></svg>